<svg width="32" height="32" viewBox="0 0 32 32" fill="none" xmlns="http://www.w3.org/2000/svg">
<g opacity="0.5">
<path d="M15.9974 5.33398C17.1374 5.33398 18.3067 5.36332 19.4401 5.41132L20.7787 5.47532L22.0601 5.55132L23.2601 5.63265L24.3561 5.71798C25.5456 5.80851 26.6651 6.3159 27.5173 7.15079C28.3695 7.98568 28.8998 9.09451 29.0147 10.282L29.0681 10.8487L29.1681 12.062C29.2614 13.3193 29.3307 14.69 29.3307 16.0007C29.3307 17.3113 29.2614 18.682 29.1681 19.9393L29.0681 21.1527L29.0147 21.7193C28.8998 22.907 28.3693 24.016 27.5168 24.8509C26.6644 25.6858 25.5445 26.1931 24.3547 26.2833L23.2614 26.3673L22.0614 26.45L20.7787 26.526L19.4401 26.59C18.2932 26.6397 17.1454 26.6654 15.9974 26.6673C14.8494 26.6654 13.7016 26.6397 12.5547 26.59L11.2161 26.526L9.93473 26.45L8.73473 26.3673L7.63873 26.2833C6.44915 26.1928 5.32966 25.6854 4.47745 24.8505C3.62525 24.0156 3.09498 22.9068 2.98006 21.7193L2.92673 21.1527L2.82673 19.9393C2.72517 18.6288 2.67092 17.3151 2.66406 16.0007C2.66406 14.69 2.7334 13.3193 2.82673 12.062L2.92673 10.8487L2.98006 10.282C3.09494 9.09472 3.62501 7.98605 4.47695 7.15119C5.32888 6.31633 6.44805 5.80881 7.6374 5.71798L8.73206 5.63265L9.93206 5.55132L11.2147 5.47532L12.5534 5.41132C13.7007 5.36162 14.849 5.33584 15.9974 5.33398ZM15.9974 8.00065C14.8974 8.00065 13.7654 8.02998 12.6641 8.07532L11.3601 8.13798L10.1081 8.21132L8.93206 8.29132L7.85473 8.37532C7.28832 8.41497 6.75432 8.65415 6.34761 9.05036C5.9409 9.44657 5.68784 9.97414 5.6334 10.5393C5.4774 12.1513 5.33073 14.158 5.33073 16.0007C5.33073 17.8433 5.4774 19.85 5.6334 21.462C5.74673 22.6247 6.6694 23.5287 7.85473 23.626L8.93206 23.7087L10.1081 23.7887L11.3601 23.8633L12.6641 23.926C13.7654 23.9713 14.8974 24.0007 15.9974 24.0007C17.0974 24.0007 18.2294 23.9713 19.3307 23.926L20.6347 23.8633L21.8867 23.79L23.0627 23.71L24.1401 23.626C24.7065 23.5863 25.2405 23.3471 25.6472 22.9509C26.0539 22.5547 26.307 22.0272 26.3614 21.462C26.5174 19.85 26.6641 17.8433 26.6641 16.0007C26.6641 14.158 26.5174 12.1513 26.3614 10.5393C26.307 9.97414 26.0539 9.44657 25.6472 9.05036C25.2405 8.65415 24.7065 8.41497 24.1401 8.37532L23.0627 8.29265L21.8867 8.21265L20.6347 8.13798L19.3307 8.07532C18.2202 8.02766 17.1089 8.00276 15.9974 8.00065ZM13.3307 12.7673C13.3306 12.637 13.3624 12.5086 13.4232 12.3934C13.484 12.2781 13.5721 12.1795 13.6797 12.106C13.7874 12.0326 13.9113 11.9865 14.0408 11.9719C14.1703 11.9572 14.3014 11.9744 14.4227 12.022L14.5307 12.0753L20.1307 15.3073C20.2422 15.3717 20.3366 15.462 20.4057 15.5706C20.4749 15.6792 20.5168 15.8029 20.5279 15.9311C20.539 16.0594 20.519 16.1884 20.4696 16.3073C20.4202 16.4262 20.3428 16.5314 20.2441 16.614L20.1307 16.694L14.5307 19.9273C14.4179 19.9927 14.2908 20.0294 14.1605 20.0344C14.0301 20.0394 13.9006 20.0125 13.7831 19.956C13.6656 19.8994 13.5636 19.815 13.4862 19.7101C13.4087 19.6052 13.3581 19.4829 13.3387 19.354L13.3307 19.234V12.7673Z" fill="white"/>
</g>
</svg>
