<svg width="300" height="52" viewBox="0 0 300 52" fill="none" xmlns="http://www.w3.org/2000/svg">
<path d="M56.4326 34.2232C56.4326 28.7272 60.6332 24.291 66.7574 24.291C72.332 24.291 76.6111 28.2953 76.6111 34.9691C76.6111 35.7714 75.9608 36.4217 75.1586 36.4217H66.4812C65.1243 36.4217 64.3418 37.7883 65.5749 38.3546C66.1977 38.6406 66.9706 38.8164 67.8959 38.8164C68.685 38.8164 69.5024 38.6749 70.2418 38.4427C71.3569 38.0925 72.7305 38.3149 73.3789 39.2875L74.0953 40.3621C74.6571 41.2048 74.5 42.3495 73.5936 42.8015C71.6944 43.7485 69.1793 44.1947 66.993 44.1947C61.065 44.1947 56.4326 40.4652 56.4326 34.2232ZM66.7574 29.6693C66.1404 29.6693 65.642 29.7847 65.2393 29.9698C64.041 30.5203 64.9558 31.9463 66.2746 31.9463H67.366C68.6578 31.9463 69.5683 30.5714 68.4062 30.007C67.9816 29.8008 67.4423 29.6693 66.7574 29.6693Z" fill="black"/>
<path d="M97.0443 41.1999C96.9155 42.662 95.6682 43.7236 94.2005 43.7236H90.1451C89.8872 43.7236 89.6781 43.5146 89.6781 43.2567C89.6781 42.8144 89.0571 42.5661 88.6937 42.818C87.4837 43.6568 85.7263 44.1947 83.9465 44.1947C81.1199 44.1947 77.4297 42.2711 77.4297 37.9527C77.4297 33.2418 81.1199 32.1033 83.9465 32.1033C85.444 32.1033 86.8552 32.3912 87.9622 32.9059C88.6062 33.2054 89.6781 32.735 89.6781 32.0248C89.6781 30.69 88.4611 29.6693 86.1449 29.6693C85.264 29.6693 84.3245 29.8451 83.4189 30.1624C81.986 30.6645 80.2265 30.3174 79.4953 28.9868C78.914 27.929 79.1696 26.5832 80.2349 26.0158C82.5139 24.8021 85.184 24.291 87.4404 24.291C92.1514 24.291 95.6912 27.1568 96.7445 32.2604C97.3803 35.3408 97.2486 38.8789 97.0443 41.1999ZM89.3023 38.951C89.5815 38.7485 89.6781 38.3957 89.6781 38.0509C89.6781 37.706 89.5815 37.3533 89.3023 37.1508C88.7136 36.7236 87.765 36.5002 86.8908 36.5002C85.7131 36.5002 84.4176 36.8928 84.4176 38.0705C84.4176 39.2483 85.7131 39.6016 86.8908 39.6016C87.765 39.6016 88.7136 39.3781 89.3023 38.951Z" fill="black"/>
<path d="M105.097 41.1947C105.097 42.8516 103.754 44.1947 102.097 44.1947H101.03C99.3734 44.1947 98.0303 42.8516 98.0303 41.1947V21.0098C98.0303 19.3529 99.3734 18.0098 101.03 18.0098H102.097C103.754 18.0098 105.097 19.3529 105.097 21.0098V41.1947Z" fill="black"/>
<path d="M117.169 44.1684C113.732 43.858 110.652 42.1663 110.652 38.2013V33.4795C110.652 32.1605 109.351 31.3 108.057 31.0421C107.861 31.0029 107.675 30.9441 107.511 30.86C105.383 29.7687 105.383 25.8272 107.511 24.7358C108.602 24.1761 109.603 25.3715 110.652 24.7358C112.382 23.6869 109.455 21.1857 110.652 19.5538C112.284 17.3284 116.086 17.3284 117.718 19.5538C118.915 21.1857 116.093 23.5295 117.718 24.7358C118.925 25.6314 120.293 23.9366 121.565 24.7358C123.591 26.0081 123.591 29.5878 121.565 30.86C121.24 31.0645 120.829 31.1644 120.398 31.1997C119.055 31.31 117.718 32.2273 117.718 33.5749V36.1598C117.718 37.1413 118.346 37.9265 119.288 37.9265C119.756 37.9265 120.31 37.731 120.563 37.6309C120.656 37.594 120.75 37.5531 120.851 37.5492C122.233 37.4943 122.679 42.2674 121.958 42.9122C121.212 43.5796 119.094 44.3424 117.169 44.1684Z" fill="black"/>
<path d="M143.806 41.1947C143.806 42.8516 142.463 44.1947 140.806 44.1947H139.74C138.083 44.1947 136.74 42.8516 136.74 41.1947V33.6344C136.74 31.6715 135.68 31.0041 133.992 31.0041C133.002 31.0041 132.309 31.3159 131.785 31.7113C131.202 32.1516 130.969 32.8993 130.969 33.6302V41.1947C130.969 42.8516 129.626 44.1947 127.969 44.1947H126.902C125.245 44.1947 123.902 42.8516 123.902 41.1947V21.0098C123.902 19.3529 125.245 18.0098 126.902 18.0098H128.406C129.821 18.0098 130.969 19.1571 130.969 20.5723C130.969 22.9385 134.695 24.8548 137.059 24.7697C137.199 24.7647 137.341 24.7621 137.486 24.7621C141.882 24.7621 143.806 27.3531 143.806 30.6508V41.1947Z" fill="black"/>
<path d="M43.1862 42.8742C39.3917 44.1885 36.6698 45.0325 33.1195 42.8742C26.6275 38.9278 29.0358 19.9298 29.0358 19.9298C29.0358 19.9298 31.4442 38.9278 24.9522 42.8742C21.4019 45.0325 18.6799 44.1885 14.8855 42.8742C2.46742 38.573 -6.35017 7.73753 5.81596 2.38764C9.77894 0.644973 17.502 -1.93867 16.5474 2.38764C12.677 19.9298 20.4468 31.1092 20.4468 31.1092C20.4468 31.1092 18.01 5.44979 25.427 2.38764C28.1093 1.28026 29.9624 1.28026 32.6446 2.38764C40.0617 5.44979 37.6221 31.1092 37.6221 31.1092C37.6221 31.1092 46.2097 24.5662 41.4767 2.38764C40.5475 -1.96659 48.2772 0.629657 52.2557 2.38764C64.4156 7.76077 55.6042 38.573 43.1862 42.8742Z" fill="black"/>
<path d="M226.924 46.3292C223.785 48.4189 220.634 48.0273 217.266 46.3292C213.45 44.4048 211.377 37.1049 211.377 37.1049L209.925 39.0675C209.925 39.0675 211.84 44.2379 209.925 46.3292C207.833 48.6128 204.958 47.2267 201.994 46.3292C192.206 43.3657 192.206 23.1113 201.994 20.1477C204.958 19.2502 207.516 18.2016 209.925 20.1477C212.906 22.5562 209.925 29.9609 209.925 29.9609C209.925 29.9609 212.533 22.0775 216.795 20.1477C220.245 18.5857 223.516 17.8071 226.493 20.1477C231.307 23.9335 216.991 26.2046 216.599 32.316C216.163 39.0992 232.584 42.5625 226.924 46.3292Z" fill="#FFC909"/>
<path d="M237.036 25.253C235.518 25.253 234.163 23.6974 233.272 22.347C232.488 21.158 232.488 19.634 233.272 18.445C234.163 17.0946 235.518 15.5391 237.036 15.5391C238.554 15.5391 239.91 17.0946 240.8 18.445C241.584 19.634 241.584 21.158 240.8 22.347C239.91 23.6974 238.554 25.253 237.036 25.253ZM242.529 47.7884C241.873 49.6859 240.06 50.8842 238.052 50.8842H236.02C234.012 50.8842 232.199 49.6859 231.543 47.7884C229.554 42.0315 226.301 30.0451 232.708 27.6574C235.876 26.4769 238.197 26.4769 241.364 27.6574C247.771 30.0451 244.519 42.0315 242.529 47.7884Z" fill="#6800E7"/>
<path d="M271.849 47.9712C271.564 48.7031 270.996 49.2707 270.254 49.5282C268.066 50.2879 263.442 51.5666 262.742 49.0981C262.481 48.1766 262.742 46.6456 262.742 46.6456C260.771 48.8576 258.559 49.6752 256.202 49.6752C250.576 49.6752 245.959 45.4434 245.959 37.4607C245.959 29.7665 250.48 25.2942 256.202 25.2942C258.559 25.2942 260.915 26.1117 262.742 28.3238C262.742 28.3238 259.239 19.7066 262.742 17.023C265.426 14.9675 268.135 16.1423 271.398 17.023C282.056 19.8992 273.929 42.6182 271.849 47.9712ZM262.742 40.4421C263.56 39.4323 263.56 35.489 262.742 34.4792C261.925 33.4693 260.29 32.9403 259.136 32.9403C256.779 32.9403 254.808 34.5753 254.808 37.4607C254.808 40.346 256.779 42.0291 259.136 42.0291C260.29 42.0291 261.925 41.452 262.742 40.4421Z" fill="#0E4FF1"/>
<path d="M280.222 43.4667C278.505 42.6564 277.814 40.643 278.634 38.9298C279.199 37.7497 279.999 36.544 281.053 36.0251C283.614 34.7636 287.641 37.5774 288.975 38.6031C289.251 38.8157 289.623 38.8615 289.937 38.7109C290.627 38.38 290.6 37.3877 289.892 37.0962L288.641 36.5814C288.52 36.5314 288.398 36.4986 288.268 36.4785C286.895 36.266 278.552 34.7372 278.552 28.9561C278.552 24.7724 282.207 21.0215 288.939 21.0215C290.903 21.0215 293.441 21.7792 295.475 22.5306C297.587 23.3109 298.813 25.611 297.743 27.5923C297.263 28.4804 296.629 29.2786 295.816 29.6293C293.713 30.5358 290.537 28.3969 289.406 27.5508C289.146 27.3566 288.8 27.3125 288.506 27.4496C287.852 27.7546 287.864 28.6881 288.526 28.9761L289.63 29.457C289.746 29.5075 289.862 29.5408 289.987 29.5613C291.358 29.7865 300 31.4428 300 37.4197C300 42.0362 295.864 45.4024 288.987 45.4024C285.942 45.4024 282.725 44.6474 280.222 43.4667Z" fill="black"/>
<path d="M172.097 25.7221C172.074 24.457 172.399 23.5249 173.07 22.9256C173.765 22.3042 174.518 21.9934 175.328 21.9934C176.139 21.9934 176.869 22.282 177.517 22.859C178.189 23.4361 178.513 24.2795 178.49 25.3892C178.467 27.9194 178.42 30.4496 178.351 32.9798C178.281 35.4878 178.235 38.018 178.212 40.5703C178.212 41.7688 178.339 42.6233 178.594 43.1338C178.872 43.6221 179.301 43.9883 179.88 44.2324C180.644 44.5654 181.408 44.865 182.172 45.1313C182.937 45.3977 183.701 45.6973 184.465 46.0302C185.322 46.3853 185.959 46.8403 186.376 47.3952C186.816 47.95 187.036 48.516 187.036 49.0931C187.036 49.7367 186.747 50.3138 186.168 50.8242C185.612 51.3125 184.743 51.5567 183.562 51.5567C182.914 51.5567 182.254 51.5567 181.582 51.5567C180.933 51.5567 180.273 51.5567 179.602 51.5567C179.37 51.5567 179.138 51.5567 178.907 51.5567C178.675 51.5567 178.444 51.5567 178.212 51.5567C177.98 51.5567 177.749 51.5567 177.517 51.5567C177.17 51.5567 176.834 51.5567 176.51 51.5567C176.185 51.5567 175.85 51.5567 175.502 51.5567C174.761 51.5567 174.008 51.5567 173.244 51.5567C172.48 51.5567 171.727 51.5567 170.986 51.5567C170.754 51.5567 170.511 51.5567 170.256 51.5567C170.025 51.5567 169.781 51.5567 169.527 51.5567C169.295 51.5567 169.063 51.5567 168.832 51.5567C168.461 51.5567 168.091 51.5567 167.72 51.5567C167.373 51.5567 167.002 51.5567 166.608 51.5567C166.446 51.5567 166.284 51.5567 166.122 51.5567C165.96 51.5567 165.798 51.5567 165.636 51.5567C164.871 51.5567 164.281 51.3458 163.864 50.9241C163.47 50.5024 163.273 50.0141 163.273 49.4593C163.273 48.9044 163.482 48.3495 163.898 47.7947C164.315 47.2398 164.918 46.7848 165.705 46.4297C166.377 46.119 167.06 45.8415 167.755 45.5974C168.45 45.3311 169.133 45.0536 169.805 44.7651C170.824 44.3212 171.507 43.844 171.854 43.3336C172.225 42.8009 172.399 41.8354 172.375 40.4372C172.352 37.9514 172.306 35.4878 172.236 33.0464C172.167 30.605 172.121 28.1635 172.097 25.7221ZM157.506 37.7072C154.935 37.4631 153.117 36.8194 152.052 35.7763C151.009 34.711 150.488 33.3127 150.488 31.5815C150.488 30.7603 150.569 29.928 150.731 29.0846C150.894 28.219 151.172 27.1537 151.565 25.8886C151.982 24.6235 152.55 22.9478 153.268 20.8615C155.491 21.6161 157.101 21.9601 158.097 21.8936C159.093 21.827 159.706 21.4164 159.938 20.6618C160.193 19.885 159.938 19.2302 159.174 18.6975C158.432 18.1649 156.881 17.5989 154.518 16.9997C154.796 16.1119 155.086 15.2352 155.387 14.3696C155.711 13.504 156.024 12.6495 156.325 11.8061C158.386 12.4941 159.984 12.9158 161.119 13.0712C162.254 13.2266 163.076 13.1822 163.586 12.938C164.095 12.6717 164.431 12.2722 164.593 11.7395C164.848 10.9405 164.501 10.2192 163.551 9.57556C162.625 8.93191 160.679 8.29936 157.715 7.67791C158.27 6.43502 158.907 5.43626 159.625 4.68164C160.343 3.90483 161.165 3.34997 162.092 3.01705C163.018 2.66193 164.084 2.48438 165.288 2.48438C167.766 2.48438 169.92 3.13911 171.75 4.4486C173.603 5.73589 174.529 7.61133 174.529 10.0749C174.529 11.0071 174.356 11.8949 174.008 12.7383C173.684 13.5595 173.232 14.3474 172.653 15.102C172.097 15.8344 171.472 16.5336 170.777 17.1994C169.735 18.1982 168.716 19.1414 167.72 20.0292C166.724 20.917 165.612 21.9491 164.385 23.1254C163.412 24.0575 162.405 24.9342 161.362 25.7554C160.343 26.5544 159.428 27.3423 158.618 28.1192C157.645 29.0513 156.985 29.7172 156.638 30.1167C156.29 30.5162 156.116 30.9157 156.116 31.3152C156.116 31.6703 156.267 31.9588 156.568 32.1808C156.869 32.4027 157.274 32.4915 157.784 32.4471C162.185 32.0254 166.585 31.5815 170.986 31.1154C175.386 30.6493 179.787 30.2055 184.187 29.7838C185.461 29.6506 186.504 29.817 187.314 30.2831C188.125 30.7492 188.727 31.3818 189.121 32.1808C189.538 32.9576 189.746 33.801 189.746 34.711C189.746 36.087 189.283 37.3521 188.356 38.5062C187.453 39.6604 186.11 40.1708 184.326 40.0377C179.856 39.6825 175.386 39.3163 170.916 38.939C166.446 38.5395 161.976 38.1289 157.506 37.7072ZM184.257 37.3743C185.137 37.3743 185.809 37.1524 186.272 36.7085C186.735 36.2424 186.967 35.6431 186.967 34.9107C186.967 34.2671 186.677 33.7122 186.098 33.2461C185.542 32.7578 184.859 32.5137 184.049 32.5137C183.284 32.5137 182.636 32.7467 182.103 33.2128C181.593 33.6567 181.339 34.2449 181.339 34.9773C181.339 35.7763 181.64 36.3755 182.242 36.7751C182.867 37.1746 183.539 37.3743 184.257 37.3743ZM175.155 28.0526C174.46 28.0526 173.858 27.7862 173.348 27.2536C172.839 26.7209 172.584 26.0773 172.584 25.3226C172.584 24.5236 172.839 23.8689 173.348 23.3584C173.858 22.8479 174.46 22.5927 175.155 22.5927C176.035 22.5927 176.741 22.8479 177.274 23.3584C177.807 23.8689 178.073 24.5236 178.073 25.3226C178.073 26.0773 177.807 26.7209 177.274 27.2536C176.741 27.7862 176.035 28.0526 175.155 28.0526ZM170.082 9.74201C170.685 9.94176 171.055 10.2192 171.194 10.5743C171.356 10.9072 171.333 11.34 171.125 11.8727C170.963 12.3388 170.731 12.6495 170.43 12.8049C170.129 12.938 169.596 12.8937 168.832 12.6717C168.693 12.6273 168.542 12.5829 168.38 12.5385C168.218 12.4719 168.044 12.4054 167.859 12.3388C167.28 12.0946 166.863 11.8172 166.608 11.5065C166.354 11.1736 166.33 10.6964 166.539 10.0749C166.678 9.60885 166.933 9.29812 167.303 9.14276C167.674 8.9874 168.114 9.00959 168.623 9.20934C168.878 9.29812 169.11 9.3869 169.318 9.47568C169.55 9.54226 169.805 9.63104 170.082 9.74201ZM165.844 14.9356C166.446 15.1353 166.817 15.4127 166.956 15.7679C167.118 16.1008 167.095 16.5336 166.886 17.0662C166.724 17.5323 166.493 17.832 166.191 17.9651C165.89 18.0983 165.358 18.065 164.593 17.8652C164.454 17.8209 164.304 17.7765 164.142 17.7321C163.98 17.6655 163.806 17.5989 163.621 17.5323C163.042 17.2882 162.636 17.0107 162.405 16.7C162.173 16.3671 162.138 15.8899 162.3 15.2685C162.439 14.8024 162.694 14.4917 163.065 14.3363C163.435 14.1809 163.875 14.2031 164.385 14.4029C164.64 14.4917 164.871 14.5804 165.08 14.6692C165.311 14.7358 165.566 14.8246 165.844 14.9356Z" fill="black"/>
</svg>
