<svg width="32" height="32" viewBox="0 0 32 32" fill="none" xmlns="http://www.w3.org/2000/svg">
<g opacity="0.5">
<path d="M16.0026 11.9993C14.9418 11.9993 13.9244 12.4208 13.1742 13.1709C12.4241 13.9211 12.0026 14.9385 12.0026 15.9993C12.0026 17.0602 12.4241 18.0776 13.1742 18.8278C13.9244 19.5779 14.9418 19.9993 16.0026 19.9993C17.0635 19.9993 18.0809 19.5779 18.8311 18.8278C19.5812 18.0776 20.0026 17.0602 20.0026 15.9993C20.0026 14.9385 19.5812 13.9211 18.8311 13.1709C18.0809 12.4208 17.0635 11.9993 16.0026 11.9993ZM16.0026 9.33268C17.7707 9.33268 19.4664 10.0351 20.7167 11.2853C21.9669 12.5355 22.6693 14.2312 22.6693 15.9993C22.6693 17.7675 21.9669 19.4632 20.7167 20.7134C19.4664 21.9636 17.7707 22.666 16.0026 22.666C14.2345 22.666 12.5388 21.9636 11.2886 20.7134C10.0383 19.4632 9.33597 17.7675 9.33597 15.9993C9.33597 14.2312 10.0383 12.5355 11.2886 11.2853C12.5388 10.0351 14.2345 9.33268 16.0026 9.33268ZM24.6693 8.99935C24.6693 9.44138 24.4937 9.8653 24.1811 10.1779C23.8686 10.4904 23.4447 10.666 23.0026 10.666C22.5606 10.666 22.1367 10.4904 21.8241 10.1779C21.5116 9.8653 21.336 9.44138 21.336 8.99935C21.336 8.55732 21.5116 8.1334 21.8241 7.82084C22.1367 7.50828 22.5606 7.33268 23.0026 7.33268C23.4447 7.33268 23.8686 7.50828 24.1811 7.82084C24.4937 8.1334 24.6693 8.55732 24.6693 8.99935ZM16.0026 5.33268C12.704 5.33268 12.1653 5.34202 10.6306 5.41002C9.5853 5.45935 8.88397 5.59935 8.2333 5.85268C7.68908 6.05318 7.19693 6.37353 6.7933 6.79002C6.37633 7.19351 6.05552 7.68567 5.85464 8.23002C5.6013 8.88335 5.4613 9.58335 5.4133 10.6273C5.34397 12.0993 5.33464 12.614 5.33464 15.9993C5.33464 19.2993 5.34397 19.8367 5.41197 21.3713C5.4613 22.4153 5.6013 23.118 5.8533 23.7673C6.07997 24.3473 6.34664 24.7647 6.7893 25.2073C7.23864 25.6553 7.65597 25.9233 8.2293 26.1447C8.88797 26.3993 9.5893 26.5407 10.6293 26.5887C12.1013 26.658 12.616 26.666 16.0013 26.666C19.3013 26.666 19.8386 26.6567 21.3733 26.5887C22.416 26.5394 23.1173 26.3994 23.7693 26.1474C24.3135 25.9469 24.8057 25.6265 25.2093 25.21C25.6586 24.762 25.9266 24.3447 26.148 23.77C26.4013 23.114 26.5426 22.4127 26.5906 21.37C26.66 19.8993 26.668 19.3834 26.668 15.9993C26.668 12.7007 26.6586 12.162 26.5906 10.6273C26.5413 9.58468 26.4 8.88068 26.148 8.23002C25.9475 7.68579 25.6271 7.19364 25.2106 6.79002C24.8071 6.37305 24.315 6.05223 23.7706 5.85135C23.1173 5.59802 22.416 5.45802 21.3733 5.41002C19.9026 5.34068 19.388 5.33268 16.0013 5.33268M16.0013 2.66602C19.624 2.66602 20.076 2.67935 21.4986 2.74602C22.9173 2.81268 23.8853 3.03535 24.7346 3.36602C25.6146 3.70468 26.356 4.16335 27.0973 4.90335C27.7756 5.56966 28.3002 6.37598 28.6346 7.26602C28.964 8.11535 29.188 9.08335 29.2546 10.5033C29.3173 11.9247 29.3346 12.3767 29.3346 15.9993C29.3346 19.622 29.3213 20.074 29.2546 21.4953C29.188 22.9167 28.964 23.882 28.6346 24.7327C28.3002 25.6227 27.7756 26.429 27.0973 27.0954C26.431 27.7736 25.6247 28.2983 24.7346 28.6327C23.8853 28.962 22.9173 29.186 21.4986 29.2527C20.076 29.3154 19.624 29.3327 16.0013 29.3327C12.3786 29.3327 11.9266 29.3194 10.504 29.2527C9.0853 29.186 8.11864 28.962 7.26797 28.6327C6.37793 28.2983 5.57161 27.7736 4.9053 27.0954C4.22704 26.429 3.70239 25.6227 3.36797 24.7327C3.0373 23.8833 2.81464 22.9153 2.74797 21.4953C2.68397 20.074 2.66797 19.622 2.66797 15.9993C2.66797 12.3767 2.6813 11.9247 2.74797 10.5033C2.81464 9.08202 3.0373 8.11668 3.36797 7.26602C3.70239 6.37598 4.22704 5.56966 4.9053 4.90335C5.57161 4.22509 6.37793 3.70044 7.26797 3.36602C8.1173 3.03535 9.08397 2.81268 10.504 2.74602C11.928 2.68335 12.38 2.66602 16.0026 2.66602" fill="white"/>
</g>
</svg>
